<svg id="Capa_1" data-name="Capa 1" xmlns="http://www.w3.org/2000/svg" viewBox="0 0 511.93 512"><defs><style>.cls-1{fill:#3fa9f5;}.cls-2{fill:#9dcfff;}.cls-3{fill:#1ea1e3;}.cls-4{fill:#9cf;}.cls-5{fill:#06c;}</style></defs><title>donate</title><path class="cls-1" d="M214.58,251.56c12.28,10.37,25,21.08,38.47,32.78a15,15,0,0,0,19.65,0c13.49-11.69,26.19-22.41,38.47-32.77,21.34-18,39.77-33.57,55.77-48.66,31.05-29.3,59.79-62.55,59.79-107.11,0-25.33-8.7-49-24.48-66.79A85.78,85.78,0,0,0,337.3,0c-28.17,0-52.59,13.32-70.62,38.52-1.35,1.89-2.62,3.78-3.8,5.65-1.18-1.87-2.45-3.76-3.8-5.65C241,13.32,216.63,0,188.46,0a85.78,85.78,0,0,0-64.94,29C107.73,46.74,99,70.46,99,95.79c0,27.53,10.68,52.92,33.61,79.93C152.65,199.29,181.35,223.51,214.58,251.56Z" transform="translate(-0.03)"/><path class="cls-2" d="M503,374l-72,96a105.14,105.14,0,0,1-84,42H213.23a347.5,347.5,0,0,1-135.9-27.9L74,391.7c20.1-96.3,119.7-120.3,177.3-69.6a41.63,41.63,0,0,0,20.7,9.3,19.4,19.4,0,0,0,5.7.6H332a29,29,0,0,1,15,4.2,29.89,29.89,0,0,1,15,25.5v.3a29.52,29.52,0,0,1-15,25.8,29,29,0,0,1-15,4.2h-91.5a15,15,0,0,0,0,30h116.4c15,0,25.8-6.3,35.1-16.8l68.1-78.6c10.8-11.7,29.4-12.6,40.5-3a27.46,27.46,0,0,1,6.9,7.5C514.43,341.3,513.53,360.2,503,374Z" transform="translate(-0.03)"/><path class="cls-3" d="M122,347a45,45,0,0,0-45-45H15A15,15,0,0,0,0,317V497a15,15,0,0,0,15,15H77a45,45,0,0,0,45-45Z" transform="translate(-0.03)"/><path class="cls-4" d="M262.88,392H332a29,29,0,0,0,15-4.2A29.51,29.51,0,0,0,362,362v-.3a29.89,29.89,0,0,0-15-25.5,29,29,0,0,0-15-4.2h-54.3a19.4,19.4,0,0,1-5.7-.6,36.6,36.6,0,0,1-9.15-2.45Z" transform="translate(-0.03)"/><path class="cls-4" d="M431,470l72-96c10.5-13.8,11.4-32.7,4.5-42.9a27.46,27.46,0,0,0-6.9-7.5c-11.1-9.6-29.7-8.7-40.5,3L392,405.2c-9.3,10.5-20.1,16.8-35.1,16.8H262.88v90H347A105.14,105.14,0,0,0,431,470Z" transform="translate(-0.03)"/><path class="cls-5" d="M272.7,284.33c13.49-11.69,26.19-22.41,38.47-32.77,21.34-18,39.77-33.57,55.77-48.66,31.05-29.3,59.79-62.55,59.79-107.11,0-25.33-8.7-49-24.48-66.79A85.78,85.78,0,0,0,337.3,0c-28.17,0-52.59,13.32-70.62,38.52-1.35,1.89-2.62,3.78-3.8,5.65V288A15,15,0,0,0,272.7,284.33Z" transform="translate(-0.03)"/></svg>