<svg id="Capa_1" data-name="Capa 1" xmlns="http://www.w3.org/2000/svg" viewBox="0 0 512 512"><defs><style>.cls-1{fill:#3fa9f5;}.cls-2{fill:#09c;}.cls-3{fill:#03c;}.cls-4{fill:#039;}.cls-5{fill:#69f;}.cls-6{fill:#36f;}.cls-7{fill:#e5ecf1;}</style></defs><title>ngo</title><path class="cls-1" d="M200.9,256H55.1A55.1,55.1,0,0,0,0,311.1V456.9A55.1,55.1,0,0,0,55.1,512H200.9A55.1,55.1,0,0,0,256,456.9V311.1A55.1,55.1,0,0,0,200.9,256Z" transform="translate(0 0)"/><path class="cls-2" d="M95.38,512H55.11A55.11,55.11,0,0,1,0,456.89V311.1A55.11,55.11,0,0,1,55.11,256H95.38a55.11,55.11,0,0,0-55.1,55.1V456.89A55.11,55.11,0,0,0,95.38,512Z" transform="translate(0 0)"/><path class="cls-3" d="M456.9,256H311.1A55.1,55.1,0,0,0,256,311.1V456.9A55.1,55.1,0,0,0,311.1,512H456.9A55.1,55.1,0,0,0,512,456.9V311.1A55.1,55.1,0,0,0,456.9,256Z" transform="translate(0 0)"/><path class="cls-4" d="M351.37,512H311.1a55.11,55.11,0,0,1-55.1-55.1V311.1A55.11,55.11,0,0,1,311.1,256h40.27a55.11,55.11,0,0,0-55.1,55.1V456.89A55.11,55.11,0,0,0,351.37,512Z" transform="translate(0 0)"/><path class="cls-5" d="M302.51,0H156.71a55.1,55.1,0,0,0-55.1,55.1V200.9a55.1,55.1,0,0,0,55.1,55.1h145.8a55.1,55.1,0,0,0,55.1-55.1V55.1A55.1,55.1,0,0,0,302.51,0Z" transform="translate(0 0)"/><path class="cls-6" d="M197,256H156.71a55.11,55.11,0,0,1-55.1-55.1V55.1A55.11,55.11,0,0,1,156.71,0H197a55.11,55.11,0,0,0-55.1,55.1V200.89A55.11,55.11,0,0,0,197,256Z" transform="translate(0 0)"/><path class="cls-7" d="M252.45,209.67l-48-87.35v85.83c0,8.08-9.85,12.12-19.69,12.12s-19.69-4-19.69-12.12V47.85c0-8.33,9.85-12.12,19.69-12.12,14.14,0,19.44,1.26,29,19.69l40.9,78V47.6c0-8.33,9.85-11.86,19.69-11.86s19.69,3.53,19.69,11.86V208.16c0,8.08-9.85,12.12-19.69,12.12-9.09,0-17.17-1.77-22-10.6Z" transform="translate(0 0)"/><path class="cls-7" d="M128.13,325.31c-14.39,0-22.72,8.08-22.72,25.24v66.9c0,17.17,8.33,25.24,22.47,25.24s22.72-8.08,22.72-25.24v-8.58H135.7c-7.57,0-11.86-7.32-11.86-15.15,0-7.32,4.29-15.15,11.86-15.15h42.41c7.57,0,11.87,5.81,11.87,12.37v26.51c0,43.42-27.26,59.58-62.1,59.58S66,460.87,66,417.45v-66.9C66,307.13,93.54,291,126.61,291c36.1,0,63.37,18.18,63.37,50.24,0,15.15-6.31,18.68-19.69,18.68-10.6,0-19.44-2.78-19.69-11.86s-1-22.72-22.47-22.72Z" transform="translate(0 0)"/><path class="cls-7" d="M322,417.45v-66.9c0-43.42,27-59.58,61.85-59.58S446,307.13,446,350.55v66.9c0,43.42-27.27,59.58-62.1,59.58S322,460.87,322,417.45Zm84.57-66.9c0-17.42-8.58-25.24-22.72-25.24s-22.47,7.83-22.47,25.24v66.9c0,17.42,8.33,25.24,22.47,25.24s22.72-7.83,22.72-25.24Z" transform="translate(0 0)"/></svg>