<svg id="Layer_1" data-name="Layer 1" xmlns="http://www.w3.org/2000/svg" viewBox="0 0 512 436"><defs><style>.cls-1{fill:#3fa9f5;}.cls-2{fill:#bbf7ff;}.cls-3{fill:#8bf0ff;}.cls-4{fill:#a9dbf5;}.cls-5{fill:#88c3e0;}.cls-6{fill:#00409f;}.cls-7{fill:#00215a;}.cls-8{fill:#f3f3f3;}.cls-9{fill:#e4e4e4;}</style></defs><title>school</title><path class="cls-1" d="M456.78,425.39H55.22a20.71,20.71,0,0,1-20.71-20.71V134a20.71,20.71,0,0,1,20.7-20.71H456.77a20.71,20.71,0,0,1,20.71,20.71V404.68A20.7,20.7,0,0,1,456.78,425.39Z" transform="translate(0 -38)"/><path class="cls-1" d="M477.49,404.58a20.71,20.71,0,0,1-20.6,20.81H426a20.71,20.71,0,0,0,20.6-20.81V134.05A20.7,20.7,0,0,0,426,113.24h30.85a20.7,20.7,0,0,1,20.6,20.81Z" transform="translate(0 -38)"/><path class="cls-2" d="M446.58,387.53a4,4,0,0,1-4,4H69.43a4,4,0,0,1-4-4V148.18a4,4,0,0,1,4-4H442.57a4,4,0,0,1,4,4Z" transform="translate(0 -38)"/><path class="cls-3" d="M442.58,391.53h-26.9V144.17h26.91a4,4,0,0,1,4,4V387.53A4,4,0,0,1,442.58,391.53Z" transform="translate(0 -38)"/><path class="cls-4" d="M497.57,474H14.43A14.43,14.43,0,0,1,0,459.57V436.89a14.43,14.43,0,0,1,14.43-14.43H497.57A14.43,14.43,0,0,1,512,436.89v22.68A14.42,14.42,0,0,1,497.57,474Z" transform="translate(0 -38)"/><path class="cls-5" d="M497.58,422.46h-30.9a14.43,14.43,0,0,1,14.42,14.43v22.68A14.43,14.43,0,0,1,466.67,474h30.9A14.43,14.43,0,0,0,512,459.57V436.89A14.43,14.43,0,0,0,497.58,422.46Z" transform="translate(0 -38)"/><path class="cls-6" d="M256,281.25H110.34a5.77,5.77,0,0,1-5.77-5.77V96.07a5.77,5.77,0,0,1,5.77-5.77H256Z" transform="translate(0 -38)"/><path class="cls-7" d="M401.66,281.25H256V90.3H401.66a5.77,5.77,0,0,1,5.77,5.77V275.48A5.77,5.77,0,0,1,401.66,281.25Z" transform="translate(0 -38)"/><path class="cls-8" d="M256,281.25l-121.27-42a5.77,5.77,0,0,1-3.88-5.46V43.78a5.77,5.77,0,0,1,7.66-5.46L256,79Z" transform="translate(0 -38)"/><path class="cls-9" d="M256,281.25l121.27-42a5.77,5.77,0,0,0,3.89-5.46V43.78a5.77,5.77,0,0,0-7.66-5.46L256,79Z" transform="translate(0 -38)"/><path class="cls-5" d="M288.73,447.2H223.28a11.57,11.57,0,0,1-11.57-11.57V422.46h88.6v13.17A11.57,11.57,0,0,1,288.73,447.2Z" transform="translate(0 -38)"/><path class="cls-6" d="M357.48,311.26h-203a7.5,7.5,0,0,0,0,15h203a7.5,7.5,0,0,0,0-15Z" transform="translate(0 -38)"/><path class="cls-6" d="M286.15,344H154.52a7.5,7.5,0,0,0,0,15H286.15a7.5,7.5,0,0,0,0-15Z" transform="translate(0 -38)"/></svg>