<svg id="Layer_1" data-name="Layer 1" xmlns="http://www.w3.org/2000/svg" viewBox="0 0 500 500"><defs><style>.cls-1{fill:#00409f;}.cls-2{fill:#00215a;}.cls-3{fill:#d7e9f9;}.cls-4{fill:#3fa9f5;}.cls-5{fill:#9fe5ff;}.cls-6{fill:#72bbff;}.cls-7{fill:#fff;}.cls-8{fill:#0c97ed;}</style></defs><title>teacher</title><g id="_10-online" data-name=" 10-online"><g id="gradient"><path class="cls-1" d="M311.92,492.76l-16-128A10,10,0,0,0,286,356H222a10,10,0,0,0-9.92,8.76l-16,128A10,10,0,0,0,206,504h96a10,10,0,0,0,9.92-11.24Z" transform="translate(-4 -4)"/><path class="cls-2" d="M355.55,485.68C353.48,484.3,304.45,452,254,452s-99.48,32.3-101.55,33.68A10,10,0,0,0,158,504H350a10,10,0,0,0,5.55-18.32Z" transform="translate(-4 -4)"/><rect class="cls-3" width="500" height="404" rx="16" ry="16"/><path class="cls-2" d="M504,340H4v52a16,16,0,0,0,16,16H488a16,16,0,0,0,16-16Z" transform="translate(-4 -4)"/><path class="cls-4" d="M270,386H238a12,12,0,0,1,0-24h32a12,12,0,0,1,0,24Z" transform="translate(-4 -4)"/><path class="cls-5" d="M368,52H4V340H368a12,12,0,0,0,12-12V64A12,12,0,0,0,368,52Z" transform="translate(-4 -4)"/><path class="cls-6" d="M48,132h72a12,12,0,0,0,0-24H48a12,12,0,0,0,0,24Z" transform="translate(-4 -4)"/><path class="cls-6" d="M48,180H152a12,12,0,0,0,0-24H48a12,12,0,0,0,0,24Z" transform="translate(-4 -4)"/><path class="cls-6" d="M48,228H152a12,12,0,0,0,0-24H48a12,12,0,0,0,0,24Z" transform="translate(-4 -4)"/><path class="cls-6" d="M80,252H48a12,12,0,0,0,0,24H80a12,12,0,0,0,0-24Z" transform="translate(-4 -4)"/><path class="cls-6" d="M176,252H128a12,12,0,0,0,0,24h48a12,12,0,0,0,0-24Z" transform="translate(-4 -4)"/><path class="cls-7" d="M450,184H404V138a6,6,0,0,0-6-6H350a6,6,0,0,0-6,6v46H272V110.64C272,94.31,259.23,80.5,242.91,80A30,30,0,0,0,212,109.16q0,.42,0,.84V214a30,30,0,0,0,30,30h50v95a1,1,0,0,0,1,1H504V238a54,54,0,0,0-54-54Z" transform="translate(-4 -4)"/><path class="cls-4" d="M450,184H429.82l-55.43,53-50.61-53H272V123.62a11.92,11.92,0,0,0-6-1.62H218a11.92,11.92,0,0,0-6,1.62V214a30,30,0,0,0,30,30h50v96H504V238a54,54,0,0,0-54-54Z" transform="translate(-4 -4)"/><path class="cls-8" d="M460,340V278a12,12,0,0,0-24,0v62Z" transform="translate(-4 -4)"/><path class="cls-7" d="M422,62H326a6,6,0,0,0-6,6v48a54,54,0,0,0,108,0V68A6,6,0,0,0,422,62Z" transform="translate(-4 -4)"/><path class="cls-1" d="M452,60c-2.15-18.54-9.59-32.5-19.32-37.37C415.42,14,383.58,14,358,14H302a6,6,0,0,0-6,6h0c0,12.11,10.08,23.31,17.9,30.18C300.68,53.93,286.18,54,286,54a6,6,0,0,0-5.69,7.9C280.69,63,290.09,90,326,90c19.19,0,30.81-5.48,37.48-10.6l4.83,14.5A6,6,0,0,0,374,98c15.86,0,28.41-8.89,36.18-16.42l11.9,36.4a6,6,0,0,0,5.92,5c1.38,0,3-.26,3.84-1.39C450,98,453.73,74.87,452,60Z" transform="translate(-4 -4)"/></g></g></svg>