<svg id="Capa_1" data-name="Capa 1" xmlns="http://www.w3.org/2000/svg" viewBox="0 0 512 503.44"><defs><style>.cls-1{fill:#03c;}.cls-2{fill:#72bbff;}.cls-3{fill:#3fa9f5;}</style></defs><title>virus</title><g id="_Group_" data-name="&lt;Group&gt;"><path class="cls-1" d="M511.86,234.61c1.87,24.2-15.15,45.68-38,48-17.5,1.75-33.33-8.25-40.64-23.88l-20.74,1.83-15.66,7.55a11.82,11.82,0,0,0-6.54,9.08,138.12,138.12,0,0,1-7.89,30.5,11.77,11.77,0,0,0,.68,10l5.58,10,15.51,10.41A27.89,27.89,0,1,1,386.52,368l-17.19-11.53-10.82-1.32a12.46,12.46,0,0,0-10.12,3.41,140,140,0,0,1-30.65,22.15,12.31,12.31,0,0,0-6.46,10.12l-1.37,21.91,6.8,27a34.65,34.65,0,1,1-33.56,8.62l-6.84-27.16-10.56-17A15.46,15.46,0,0,0,252.55,397h-.08a139.92,139.92,0,0,1-27-2.64,15.43,15.43,0,0,0-14.24,4.47l-13.95,14.72-15.62,32.4a27.89,27.89,0,1,1-31.31-14.84L166,398.46l3.09-21.88A11.63,11.63,0,0,0,165,365.91a140.42,140.42,0,0,1-31.59-36.21,11.6,11.6,0,0,0-9.84-5.55l-21.85-.21-23.92,7.52a39,39,0,1,1-11.87-32.58l25.39-8,18.54-13.22a9.54,9.54,0,0,0,4-8.59q-.46-5.59-.46-11.3A138.31,138.31,0,0,1,126,199.86a9.51,9.51,0,0,0-.1-8.13l-5.49-11.23-14.91-11.25a27.89,27.89,0,1,1,19.25-28.87l16.53,12.47,16.65,3a139.49,139.49,0,0,1,41.77-26.76l3.91-23.75-4.93-24.53C184,77,172.18,65.82,169,50.9c-4.5-21.08,10-41.61,32.36-45.85s44.16,9.4,48.66,30.48c3.37,15.78-3.89,31.23-17.14,39.79l4.66,23.14L249,116.73a4.09,4.09,0,0,0,3.47,1.91h0a138.21,138.21,0,0,1,71.69,19.95,4,4,0,0,0,3.78.21l17.92-8.31,20.92-22.63a27.88,27.88,0,1,1,25.43,23.52L371.3,154,364.5,172.3a4,4,0,0,0,.53,3.78,138.43,138.43,0,0,1,19.38,37.49,11.88,11.88,0,0,0,8,7.68l17,4.77,22.1-2c5.42-15.63,19-27.45,35.58-29.12,22.85-2.29,42.9,15.47,44.76,39.67Z" transform="translate(0 -4.28)"/></g><g id="_Group_2" data-name="&lt;Group&gt;"><circle class="cls-2" cx="252.47" cy="253.52" r="103.04"/></g><path class="cls-3" d="M180.83,257.8a103.07,103.07,0,0,1,87.34-101.85,103,103,0,1,0,0,203.71A103.07,103.07,0,0,1,180.83,257.8Z" transform="translate(0 -4.28)"/><circle class="cls-1" cx="79.09" cy="36.84" r="29.34"/><circle class="cls-1" cx="71.07" cy="423.64" r="19.38"/><circle class="cls-1" cx="426.93" cy="455.48" r="28.55"/><circle class="cls-1" cx="220.84" cy="225.1" r="26.62"/><circle class="cls-1" cx="242.2" cy="307.77" r="18.12"/><circle class="cls-1" cx="299.09" cy="253.52" r="15.21"/></svg>