<svg id="Capa_1" data-name="Capa 1" xmlns="http://www.w3.org/2000/svg" viewBox="0 0 512.12 487.02"><defs><style>.cls-1{fill:#9dcfff;}.cls-2{fill:#72bbff;}.cls-3{fill:#09f;}.cls-4{fill:#3fa9f5;}.cls-5{fill:#06c;}.cls-6{fill:#5f99d7;}.cls-7{fill:#3c87d0;}</style></defs><title>volunteer</title><path class="cls-1" d="M119.82,61.52l35.57,35.57a36.45,36.45,0,0,0,32.83,10l19.42-3.83a36.45,36.45,0,0,1,29.67,7.17l53.15,46.79L151.32,299.37l-47.2-47.2a36.45,36.45,0,0,1-10.59-28.33l1.92-27.27a36.45,36.45,0,0,0-10.59-28.33L49,132.36Z" transform="translate(0.03 -12.49)"/><path class="cls-2" d="M290.46,157.2l-53.14-46.79a36.47,36.47,0,0,0-29.68-7.16l-19.42,3.83a36.48,36.48,0,0,1-32.85-10L119.64,61.35,105.56,75.44l45,45a36.43,36.43,0,0,0,32.82,10l19.42-3.84c8.85-1.75,20.21,2.09,28.55,7.32a40.65,40.65,0,0,1,6.16,4.77l37.18,34.72Z" transform="translate(0.03 -12.49)"/><path class="cls-2" d="M125.82,67.52,55,138.35l-55-55L70.85,12.55Z" transform="translate(0.03 -12.49)"/><path class="cls-3" d="M125.82,67.51,111.74,81.6l-55-55L70.86,12.54Z" transform="translate(0.03 -12.49)"/><path class="cls-4" d="M392.59,61.11l-36,36a36.45,36.45,0,0,1-32.83,10l-19.42-3.83a36.45,36.45,0,0,0-29.67,7.17L221.54,157.2,360.68,299.37l47.2-47.2a36.45,36.45,0,0,0,10.59-28.33l-1.92-27.27a36.45,36.45,0,0,1,10.59-28.33L463.43,132Z" transform="translate(0.03 -12.49)"/><path class="cls-5" d="M427.14,168.24a36.47,36.47,0,0,0-10.59,28.33l1.92,27.27a36.44,36.44,0,0,1-10.59,28.32l-47.21,47.21-16.66-17,37.83-37.52a38.1,38.1,0,0,0,11.07-29.61l-2-28.52A38.08,38.08,0,0,1,402,157.09L445.1,113.6l18.34,18.33Z" transform="translate(0.03 -12.49)"/><path class="cls-6" d="M441.12,12.49l70.83,70.83-55,55L386.15,67.46Z" transform="translate(0.03 -12.49)"/><path class="cls-7" d="M493.7,65.07,512,83.32l-55,55L438.74,120Z" transform="translate(0.03 -12.49)"/><path class="cls-4" d="M118.45,451.84l36.93-36.93a36.45,36.45,0,0,1,32.83-10l19.42,3.83a36.45,36.45,0,0,0,29.67-7.17l90.83-84.47L189,174.95l-84.89,84.88a36.45,36.45,0,0,0-10.59,28.33l1.92,27.27a36.45,36.45,0,0,1-10.59,28.33L47.61,381Z" transform="translate(0.03 -12.49)"/><path class="cls-5" d="M328.14,317.12l-90.83,84.47a36.47,36.47,0,0,1-29.68,7.16l-19.41-3.83a36.48,36.48,0,0,0-32.85,10l-36.92,36.92-14.09-14.09,46.15-46.15a36.43,36.43,0,0,1,32.82-10l19.42,3.84c8.85,1.74,20.21-2.09,28.55-7.32a40.65,40.65,0,0,0,6.16-4.77L312.33,301Z" transform="translate(0.03 -12.49)"/><path class="cls-6" d="M70.8,499.5,0,428.68l55-55,70.83,70.83Z" transform="translate(0.03 -12.49)"/><path class="cls-7" d="M70.8,499.51,56.71,485.42l55-55,14.09,14.09Z" transform="translate(0.03 -12.49)"/><path class="cls-1" d="M338.93,196.15a22.71,22.71,0,0,0-8.55,32.05l-87.9-87.7a20.44,20.44,0,0,0-30.91,26.59L201,156.51a20.46,20.46,0,0,0-28.93,28.93L205,218.39a20.44,20.44,0,0,0-28.06,29.72l42.52,42.52A18.65,18.65,0,0,0,193.09,317l77.58,77.58a36.71,36.71,0,0,0,28.53,10.66l27.47-1.93A36.71,36.71,0,0,1,355.2,414l39.21,39.21,71.34-71.34L426.85,343a36.71,36.71,0,0,1-10.06-33.07l3.86-19.56a36.71,36.71,0,0,0-7.22-29.88L369,204.3a22.71,22.71,0,0,0-30.09-8.16Z" transform="translate(0.03 -12.49)"/><path class="cls-2" d="M369,204.3l44.42,56.16a36.73,36.73,0,0,1,7.21,29.89l-3.86,19.55A36.71,36.71,0,0,0,426.85,343l38.89,38.89-14.19,14.19-48.17-48.17a36.71,36.71,0,0,1-10.06-33.07l3.86-19.56c2.08-10.54-3.71-24.61-10.37-33l-32-43.74a22.73,22.73,0,0,0-26.69-9.63A22.72,22.72,0,0,1,369,204.3Z" transform="translate(0.03 -12.49)"/><path class="cls-2" d="M337.2,244.79h0a7.2,7.2,0,0,1-10.27.11l-91.44-91.05a20.46,20.46,0,0,0-27.82-1,20.46,20.46,0,0,1,34.81-12.34l94.61,94.21a7.2,7.2,0,0,1,.11,10.09Z" transform="translate(0.03 -12.49)"/><path class="cls-2" d="M308.61,274.31a7.2,7.2,0,0,1-10.18,0L194,169.87a20.46,20.46,0,0,0-27.82-1A20.46,20.46,0,0,1,201,156.51L308.61,264.14A7.2,7.2,0,0,1,308.61,274.31Z" transform="translate(0.03 -12.49)"/><path class="cls-2" d="M279.72,303.2a7.2,7.2,0,0,1-10.18,0l-70.66-70.66a20.43,20.43,0,0,0-27.82-1,20.46,20.46,0,0,1,34.81-12.35L279.72,293a7.2,7.2,0,0,1,0,10.17Z" transform="translate(0.03 -12.49)"/><path class="cls-2" d="M250.57,332.13h0A7.2,7.2,0,0,1,240.5,332l-28-28a18.62,18.62,0,0,0-24.8-1.4,18.65,18.65,0,0,1,31.81-12l31.2,31.21a7.2,7.2,0,0,1-.11,10.28Z" transform="translate(0.03 -12.49)"/><path class="cls-2" d="M512.08,428.12l-71.33,71.33L385.4,444.09l71.33-71.33Z" transform="translate(0.03 -12.49)"/><path class="cls-3" d="M512.09,428.11,497.9,442.3l-55.36-55.36,14.19-14.19Z" transform="translate(0.03 -12.49)"/></svg>